<svg width="16" height="16" viewBox="0 0 16 16" fill="none" xmlns="http://www.w3.org/2000/svg">
<g clip-path="url(#clip0_45_794)">
<path d="M14.6642 0.493042H1.31946C0.862518 0.493317 0.492096 0.863922 0.492188 1.32104V14.6658C0.492462 15.1227 0.863068 15.4931 1.32019 15.493H8.50488V9.69226H6.55664V7.42175H8.50488V5.75082C8.50488 3.81311 9.68784 2.75842 11.4164 2.75842C12.2443 2.75842 12.9557 2.82013 13.1631 2.84769V4.87292H11.9712C11.0307 4.87292 10.8486 5.31979 10.8486 5.97568V7.42175H13.0972L12.8042 9.69226H10.8486V15.493H14.6642C15.1214 15.4931 15.4921 15.1226 15.4922 14.6654C15.4922 14.6653 15.4922 14.6652 15.4922 14.665V1.32031C15.492 0.863373 15.1213 0.49295 14.6642 0.493042Z" fill="#3910CE"/>
</g>
<defs>
<clipPath id="clip0_45_794">
<rect width="16" height="16" fill="white"/>
</clipPath>
</defs>
</svg>
