<svg width="18" height="18" viewBox="0 0 18 18" fill="none" xmlns="http://www.w3.org/2000/svg">
<g clip-path="url(#clip0_45_774)">
<path d="M16.4972 0.554688H1.48439C0.970333 0.554997 0.553608 0.971928 0.553711 1.48619V16.499C0.55402 17.0131 0.970951 17.4298 1.48521 17.4297H9.56799V10.9038H7.37622V8.34949H9.56799V6.46969C9.56799 4.28976 10.8988 3.10324 12.8434 3.10324C13.7748 3.10324 14.5752 3.17266 14.8085 3.20366V5.48206H13.4676C12.4096 5.48206 12.2047 5.98478 12.2047 6.72265V8.34949H14.7343L14.4047 10.9038H12.2047V17.4297H16.4972C17.0116 17.4298 17.4286 17.013 17.4287 16.4986C17.4287 16.4985 17.4287 16.4984 17.4287 16.4982V1.48537C17.4285 0.97131 17.0115 0.554585 16.4972 0.554688Z" fill="#171A4A"/>
</g>
<defs>
<clipPath id="clip0_45_774">
<rect width="18" height="18" fill="white"/>
</clipPath>
</defs>
</svg>
