<svg width="10" height="15" viewBox="0 0 10 15" fill="none" xmlns="http://www.w3.org/2000/svg">
<path d="M0.5 9.66667C1.06262 10.1554 1.72125 10.521 2.43356 10.74C3.14588 10.959 3.89613 11.0266 4.63613 10.9384C5.37612 10.8503 6.08949 10.6083 6.7304 10.228C7.37131 9.84776 7.9256 9.33765 8.35765 8.73044C8.7897 8.12324 9.08996 7.43237 9.23913 6.70223C9.38831 5.97209 9.38311 5.21881 9.22386 4.4908C9.06461 3.76278 8.75484 3.07613 8.31444 2.47495C7.87405 1.87378 7.31277 1.37137 6.66667 1M4 11V13.6667M1.33333 13.6667H6.66667M6.66667 5.66667C6.66667 7.13943 5.47276 8.33333 4 8.33333C2.52724 8.33333 1.33333 7.13943 1.33333 5.66667C1.33333 4.19391 2.52724 3 4 3C5.47276 3 6.66667 4.19391 6.66667 5.66667Z" stroke="#171B4A" stroke-linecap="round" stroke-linejoin="round"/>
</svg>
