<svg width="16" height="16" viewBox="0 0 16 16" fill="none" xmlns="http://www.w3.org/2000/svg">
<g clip-path="url(#clip0_45_788)">
<path d="M2.31125 0.812439C1.21133 0.812439 0.492188 1.5347 0.492188 2.48401C0.492188 3.41235 1.18991 4.15521 2.26904 4.15521H2.28992C3.41135 4.15521 4.10925 3.41235 4.10925 2.48401C4.08829 1.5347 3.41135 0.812439 2.31125 0.812439Z" fill="#3910CE"/>
<path d="M0.682617 5.47571H3.89813V15.1497H0.682617V5.47571Z" fill="#3910CE"/>
<path d="M11.7902 5.25C10.0555 5.25 8.89236 6.88001 8.89236 6.88001V5.47705H5.67676V15.1511H8.89218V9.74872C8.89218 9.45951 8.91315 9.17075 8.99811 8.96393C9.23056 8.38642 9.75955 7.78812 10.6479 7.78812C11.8114 7.78812 12.2768 8.67527 12.2768 9.97577V15.1511H15.492V9.60416C15.492 6.63272 13.9056 5.25 11.7902 5.25Z" fill="#3910CE"/>
</g>
<defs>
<clipPath id="clip0_45_788">
<rect width="16" height="16" fill="white"/>
</clipPath>
</defs>
</svg>
