<svg width="146" height="57" viewBox="0 0 146 57" fill="none" xmlns="http://www.w3.org/2000/svg">
<circle cx="43.5753" cy="18.5714" r="1.66316" fill="white"/>
<circle cx="36.922" cy="13.2481" r="1.66316" fill="white"/>
<circle cx="27.6085" cy="10.587" r="1.66316" fill="white"/>
<circle cx="19.6251" cy="13.9141" r="1.66316" fill="white"/>
<circle cx="12.9727" cy="19.9014" r="1.66316" fill="white"/>
<circle cx="10.3116" cy="27.8848" r="1.66316" fill="white"/>
<circle cx="12.3077" cy="37.1983" r="1.66316" fill="white"/>
<circle cx="17.63" cy="43.8507" r="1.66316" fill="white"/>
<circle cx="25.6124" cy="47.1778" r="1.66316" fill="white"/>
<circle cx="34.2608" cy="47.1778" r="1.66316" fill="white"/>
<circle cx="42.2442" cy="42.5206" r="1.66316" fill="white"/>
<circle cx="49.0998" cy="13.9875" r="2.90055" fill="white"/>
<circle cx="39.8595" cy="6.59587" r="2.90055" fill="white"/>
<circle cx="26.924" cy="2.90055" r="2.90055" fill="white"/>
<circle cx="15.8351" cy="7.52067" r="2.90055" fill="white"/>
<circle cx="6.59587" cy="15.8361" r="2.90055" fill="white"/>
<circle cx="2.90055" cy="26.924" r="2.90055" fill="white"/>
<circle cx="5.67204" cy="39.8595" r="2.90055" fill="white"/>
<circle cx="13.0636" cy="49.0998" r="2.90055" fill="white"/>
<circle cx="24.1515" cy="53.7189" r="2.90055" fill="white"/>
<circle cx="36.1632" cy="53.7189" r="2.90055" fill="white"/>
<circle cx="47.2511" cy="47.2511" r="2.90055" fill="white"/>
<path d="M54.8521 31.122C55.6462 31.3071 56.2037 31.5314 56.5247 31.7947C56.9855 32.1691 57.2159 32.6547 57.2159 33.2513C57.2159 33.8808 56.9629 34.4013 56.4568 34.8128C55.8355 35.3106 54.9323 35.5596 53.7473 35.5596H49.4949V35.3312C49.8817 35.3312 50.1429 35.2962 50.2787 35.2263C50.4186 35.1522 50.5153 35.0576 50.5688 34.9424C50.6264 34.8272 50.6552 34.5433 50.6552 34.0907V28.6594C50.6552 28.2068 50.6264 27.9229 50.5688 27.8077C50.5153 27.6883 50.4186 27.5937 50.2787 27.5238C50.1388 27.4538 49.8775 27.4188 49.4949 27.4188V27.1905H53.5066C54.4653 27.1905 55.1442 27.2769 55.5433 27.4497C55.9425 27.6184 56.2572 27.8735 56.4876 28.215C56.7181 28.5524 56.8333 28.9124 56.8333 29.2951C56.8333 29.6983 56.6872 30.0584 56.3951 30.3752C56.1029 30.6879 55.5886 30.9368 54.8521 31.122ZM52.6055 30.9553C53.1898 30.9553 53.6198 30.8895 53.8954 30.7578C54.1752 30.6262 54.3892 30.441 54.5373 30.2024C54.6854 29.9637 54.7595 29.6592 54.7595 29.2889C54.7595 28.9186 54.6854 28.6162 54.5373 28.3817C54.3933 28.143 54.1855 27.962 53.914 27.8385C53.6424 27.7151 53.2063 27.6554 52.6055 27.6595V30.9553ZM52.6055 31.4367V34.1215L52.5993 34.4301C52.5993 34.6523 52.6549 34.821 52.766 34.9362C52.8812 35.0473 53.0499 35.1028 53.2721 35.1028C53.6013 35.1028 53.9037 35.0308 54.1794 34.8868C54.4591 34.7387 54.6731 34.5268 54.8212 34.2511C54.9694 33.9713 55.0434 33.6607 55.0434 33.3192C55.0434 32.9283 54.9529 32.5785 54.7719 32.2699C54.5908 31.9572 54.3419 31.7392 54.0251 31.6157C53.7082 31.4923 53.2351 31.4326 52.6055 31.4367ZM63.7241 26.9991L63.792 29.7888H63.5389C63.4196 29.0894 63.1254 28.5277 62.6563 28.1039C62.1914 27.676 61.6873 27.462 61.1442 27.462C60.7245 27.462 60.3912 27.5752 60.1444 27.8015C59.9016 28.0237 59.7802 28.2808 59.7802 28.573C59.7802 28.7581 59.8234 28.9227 59.9098 29.0667C60.0292 29.2601 60.2205 29.4514 60.4838 29.6407C60.6772 29.7765 61.1236 30.0172 61.8231 30.3628C62.8024 30.8442 63.4628 31.2989 63.8043 31.7268C64.1417 32.1547 64.3104 32.6444 64.3104 33.1957C64.3104 33.8952 64.0368 34.498 63.4895 35.0041C62.9464 35.5061 62.2552 35.7571 61.4158 35.7571C61.1524 35.7571 60.9035 35.7303 60.669 35.6768C60.4344 35.6233 60.1403 35.5225 59.7864 35.3744C59.5889 35.2921 59.4264 35.251 59.2988 35.251C59.1918 35.251 59.0787 35.2921 58.9594 35.3744C58.84 35.4567 58.7433 35.5822 58.6693 35.7509H58.4409V32.5909H58.6693C58.8503 33.4796 59.198 34.1585 59.7123 34.6276C60.2308 35.0926 60.7883 35.325 61.3849 35.325C61.8458 35.325 62.212 35.1995 62.4835 34.9486C62.7592 34.6976 62.897 34.4054 62.897 34.0721C62.897 33.8746 62.8435 33.6833 62.7366 33.4982C62.6337 33.313 62.4753 33.1381 62.2613 32.9735C62.0474 32.8048 61.6688 32.5868 61.1257 32.3193C60.3645 31.9449 59.8173 31.626 59.484 31.3627C59.1507 31.0993 58.8935 30.8052 58.7125 30.4801C58.5356 30.155 58.4471 29.7971 58.4471 29.4062C58.4471 28.7396 58.6919 28.1718 59.1816 27.7027C59.6712 27.2337 60.2884 26.9991 61.0331 26.9991C61.3047 26.9991 61.568 27.0321 61.8231 27.0979C62.0165 27.1473 62.251 27.2399 62.5267 27.3756C62.8065 27.5073 63.002 27.5731 63.1131 27.5731C63.22 27.5731 63.3044 27.5402 63.3661 27.4744C63.4278 27.4086 63.4854 27.2501 63.5389 26.9991H63.7241ZM70.8864 26.9991L70.9543 29.7888H70.7013C70.582 29.0894 70.2878 28.5277 69.8187 28.1039C69.3537 27.676 68.8497 27.462 68.3066 27.462C67.8869 27.462 67.5536 27.5752 67.3067 27.8015C67.064 28.0237 66.9426 28.2808 66.9426 28.573C66.9426 28.7581 66.9858 28.9227 67.0722 29.0667C67.1915 29.2601 67.3829 29.4514 67.6462 29.6407C67.8396 29.7765 68.286 30.0172 68.9855 30.3628C69.9648 30.8442 70.6252 31.2989 70.9667 31.7268C71.3041 32.1547 71.4728 32.6444 71.4728 33.1957C71.4728 33.8952 71.1991 34.498 70.6519 35.0041C70.1088 35.5061 69.4175 35.7571 68.5781 35.7571C68.3148 35.7571 68.0659 35.7303 67.8313 35.6768C67.5968 35.6233 67.3026 35.5225 66.9488 35.3744C66.7513 35.2921 66.5887 35.251 66.4612 35.251C66.3542 35.251 66.2411 35.2921 66.1217 35.3744C66.0024 35.4567 65.9057 35.5822 65.8316 35.7509H65.6033V32.5909H65.8316C66.0127 33.4796 66.3604 34.1585 66.8747 34.6276C67.3931 35.0926 67.9507 35.325 68.5473 35.325C69.0081 35.325 69.3743 35.1995 69.6459 34.9486C69.9216 34.6976 70.0594 34.4054 70.0594 34.0721C70.0594 33.8746 70.0059 33.6833 69.8989 33.4982C69.7961 33.313 69.6377 33.1381 69.4237 32.9735C69.2097 32.8048 68.8312 32.5868 68.2881 32.3193C67.5269 31.9449 66.9796 31.626 66.6463 31.3627C66.3131 31.0993 66.0559 30.8052 65.8749 30.4801C65.6979 30.155 65.6095 29.7971 65.6095 29.4062C65.6095 28.7396 65.8543 28.1718 66.3439 27.7027C66.8336 27.2337 67.4507 26.9991 68.1955 26.9991C68.467 26.9991 68.7304 27.0321 68.9855 27.0979C69.1789 27.1473 69.4134 27.2399 69.6891 27.3756C69.9689 27.5073 70.1643 27.5731 70.2754 27.5731C70.3824 27.5731 70.4667 27.5402 70.5285 27.4744C70.5902 27.4086 70.6478 27.2501 70.7013 26.9991H70.8864ZM78.8418 27.6719V31.0788H79.0084C79.5392 31.0788 79.9239 30.9121 80.1625 30.5788C80.4012 30.2456 80.5534 29.7539 80.6193 29.1038H80.8538V33.4858H80.6193C80.5699 33.0085 80.465 32.6176 80.3045 32.3132C80.1481 32.0087 79.965 31.805 79.7552 31.7021C79.5454 31.5952 79.2409 31.5417 78.8418 31.5417V33.8993C78.8418 34.3602 78.8603 34.642 78.8973 34.7449C78.9385 34.8477 79.0125 34.9321 79.1195 34.9979C79.2265 35.0638 79.3993 35.0967 79.6379 35.0967H80.1379C80.9196 35.0967 81.5451 34.9156 82.0141 34.5536C82.4873 34.1915 82.8268 33.6401 83.0325 32.8995H83.2608L82.8844 35.5596L75.6509 35.5596V35.3312H75.9286C76.1714 35.3312 76.3668 35.288 76.515 35.2016C76.6219 35.144 76.7042 35.0452 76.7618 34.9053C76.8071 34.8066 76.8297 34.5474 76.8297 34.1277V28.6224C76.8297 28.2438 76.8194 28.0113 76.7989 27.9249C76.7577 27.7809 76.6816 27.6698 76.5705 27.5917C76.4142 27.4764 76.2002 27.4188 75.9286 27.4188H75.6509V27.1905L82.656 27.1905V29.6654H82.4215C82.3021 29.0606 82.1334 28.6265 81.9154 28.3631C81.7014 28.0998 81.3969 27.9064 81.0019 27.783C80.7715 27.7089 80.3395 27.6719 79.7058 27.6719L78.8418 27.6719ZM89.2937 30.6529L91.602 34.0783C91.9847 34.6461 92.2563 34.9918 92.4167 35.1152C92.5813 35.2345 92.7747 35.3065 92.9969 35.3312V35.5596H88.9173V35.3312C89.2423 35.3065 89.4522 35.2571 89.5468 35.1831C89.6414 35.109 89.6887 35.0185 89.6887 34.9115C89.6887 34.8375 89.6743 34.7716 89.6455 34.714C89.5879 34.5906 89.4439 34.3602 89.2135 34.0228L87.9915 32.2144L86.7139 33.7759C86.3312 34.2491 86.1399 34.57 86.1399 34.7387C86.1399 34.858 86.1893 34.9691 86.288 35.072C86.3868 35.1749 86.5329 35.2489 86.7262 35.2942C86.8126 35.3189 86.9896 35.3312 87.257 35.3312V35.5596H84.0415V35.3312C84.4077 35.2777 84.6957 35.179 84.9055 35.035C85.1812 34.8457 85.5659 34.4507 86.0597 33.85L87.7199 31.8256L85.5906 28.6964C85.2409 28.1821 85.0413 27.8961 84.9919 27.8385C84.8808 27.7027 84.7718 27.6061 84.6648 27.5484C84.5578 27.4908 84.4097 27.4476 84.2204 27.4188V27.1905H88.3741V27.4188H88.1643C87.9256 27.4188 87.759 27.4579 87.6644 27.5361C87.5697 27.6102 87.5224 27.7048 87.5224 27.82C87.5224 27.9105 87.5368 27.9887 87.5656 28.0545L87.9915 28.6964L89.0284 30.2764L89.9109 29.1963C90.3635 28.6409 90.5898 28.252 90.5898 28.0299C90.5898 27.9188 90.5569 27.8159 90.4911 27.7213C90.4294 27.6266 90.3389 27.5526 90.2195 27.4991C90.1002 27.4456 89.9151 27.4188 89.6641 27.4188V27.1905H92.7438V27.4188C92.5011 27.423 92.3056 27.4538 92.1575 27.5114C92.0094 27.5649 91.851 27.6678 91.6823 27.82C91.5753 27.9188 91.3078 28.2253 90.8799 28.7396L89.2937 30.6529ZM96.6289 31.77V34.0907C96.6289 34.5433 96.6557 34.8292 96.7092 34.9486C96.7668 35.0638 96.8655 35.1563 97.0054 35.2263C97.1494 35.2962 97.4107 35.3312 97.7892 35.3312V35.5596H93.5368V35.3312C93.9236 35.3312 94.1849 35.2962 94.3206 35.2263C94.4605 35.1522 94.5572 35.0576 94.6107 34.9424C94.6683 34.8272 94.6971 34.5433 94.6971 34.0907V28.6594C94.6971 28.2068 94.6683 27.9229 94.6107 27.8077C94.5572 27.6883 94.4605 27.5937 94.3206 27.5238C94.1807 27.4538 93.9195 27.4188 93.5368 27.4188V27.1905H97.1844C98.3859 27.1905 99.2479 27.4044 99.7704 27.8324C100.293 28.2603 100.554 28.7952 100.554 29.437C100.554 29.9802 100.386 30.4451 100.048 30.8319C99.7108 31.2187 99.2458 31.482 98.6533 31.6219C98.2542 31.7207 97.5794 31.77 96.6289 31.77ZM96.6289 27.6719V31.2886C96.7647 31.2968 96.8676 31.301 96.9375 31.301C97.4395 31.301 97.8263 31.1528 98.0978 30.8566C98.3694 30.5562 98.5052 30.0933 98.5052 29.4679C98.5052 28.8466 98.3694 28.3919 98.0978 28.1039C97.8263 27.8159 97.421 27.6719 96.882 27.6719H96.6289ZM104.513 27.6719V31.0788H104.68C105.211 31.0788 105.596 30.9121 105.834 30.5788C106.073 30.2456 106.225 29.7539 106.291 29.1038H106.525V33.4858H106.291C106.242 33.0085 106.137 32.6176 105.976 32.3132C105.82 32.0087 105.637 31.805 105.427 31.7021C105.217 31.5952 104.913 31.5417 104.513 31.5417V33.8993C104.513 34.3602 104.532 34.642 104.569 34.7449C104.61 34.8477 104.684 34.9321 104.791 34.9979C104.898 35.0638 105.071 35.0967 105.31 35.0967H105.809C106.591 35.0967 107.217 34.9156 107.686 34.5536C108.159 34.1915 108.498 33.6401 108.704 32.8995H108.932L108.556 35.5596H101.323V35.3312H101.6C101.843 35.3312 102.038 35.288 102.187 35.2016C102.294 35.144 102.376 35.0452 102.433 34.9053C102.479 34.8066 102.501 34.5474 102.501 34.1277V28.6224C102.501 28.2438 102.491 28.0113 102.471 27.9249C102.429 27.7809 102.353 27.6698 102.242 27.5917C102.086 27.4764 101.872 27.4188 101.6 27.4188H101.323V27.1905L108.328 27.1905V29.6654H108.093C107.974 29.0606 107.805 28.6265 107.587 28.3631C107.373 28.0998 107.069 27.9064 106.674 27.783C106.443 27.7089 106.011 27.6719 105.377 27.6719H104.513ZM112.984 31.7453V34.0907C112.984 34.5433 113.011 34.8292 113.064 34.9486C113.122 35.0638 113.221 35.1563 113.361 35.2263C113.501 35.2962 113.762 35.3312 114.145 35.3312V35.5596L109.861 35.5596V35.3312C110.248 35.3312 110.509 35.2962 110.645 35.2263C110.785 35.1522 110.882 35.0576 110.935 34.9424C110.993 34.8272 111.022 34.5433 111.022 34.0907V28.6594C111.022 28.2068 110.993 27.9229 110.935 27.8077C110.882 27.6883 110.785 27.5937 110.645 27.5238C110.505 27.4538 110.244 27.4188 109.861 27.4188V27.1905H113.75C114.762 27.1905 115.502 27.2604 115.971 27.4003C116.44 27.5402 116.823 27.7994 117.119 28.178C117.416 28.5524 117.564 28.9927 117.564 29.4988C117.564 30.116 117.342 30.6262 116.897 31.0294C116.613 31.2845 116.216 31.4758 115.706 31.6034L117.718 34.4363C117.981 34.8025 118.169 35.0308 118.28 35.1214C118.448 35.2489 118.644 35.3189 118.866 35.3312V35.5596H116.231L113.534 31.7453H112.984ZM112.984 27.641V31.3071H113.336C113.908 31.3071 114.336 31.2557 114.62 31.1528C114.904 31.0459 115.126 30.8566 115.286 30.585C115.451 30.3093 115.533 29.9514 115.533 29.5111C115.533 28.8733 115.383 28.4022 115.083 28.0977C114.786 27.7933 114.307 27.641 113.645 27.641H112.984ZM126.862 27.1905V29.4556H126.639C126.508 28.933 126.362 28.5586 126.201 28.3323C126.041 28.1019 125.821 27.9188 125.541 27.783C125.384 27.7089 125.111 27.6719 124.72 27.6719H124.097V34.1277C124.097 34.5556 124.119 34.8231 124.164 34.93C124.214 35.037 124.306 35.1317 124.442 35.2139C124.582 35.2921 124.771 35.3312 125.01 35.3312H125.288V35.5596H120.906V35.3312H121.183C121.426 35.3312 121.622 35.288 121.77 35.2016C121.877 35.144 121.961 35.0452 122.023 34.9053C122.068 34.8066 122.091 34.5474 122.091 34.1277V27.6719H121.486C120.922 27.6719 120.513 27.7912 120.258 28.0299C119.9 28.3631 119.673 28.8384 119.579 29.4556H119.344V27.1905L126.862 27.1905Z" fill="white"/>
<path d="M67.6912 46.2273C67.3931 46.2273 67.1235 46.206 66.8822 46.1635C66.6551 46.1209 66.4848 46.0783 66.3713 46.0357C66.2152 45.979 66.0945 45.908 66.0094 45.8229C65.9384 45.7235 65.9029 45.6384 65.9029 45.5674C65.9029 45.468 65.9526 45.4184 66.0519 45.4184C66.1229 45.4184 66.2081 45.4609 66.3074 45.5461C66.5061 45.7164 66.6977 45.8158 66.8822 45.8441C67.0383 45.8441 67.2441 45.8229 67.4996 45.7803C67.755 45.7235 67.9324 45.6454 68.0318 45.5461C68.2021 45.3758 68.2872 45.2055 68.2872 45.0352C68.2872 44.9216 68.2518 44.8152 68.1808 44.7159C68.124 44.6023 68.0389 44.4959 67.9253 44.3965C67.7408 44.2404 67.5563 44.0843 67.3718 43.9282C67.1873 43.7579 67.0312 43.5734 66.9035 43.3747C66.7048 43.0624 66.6054 42.7573 66.6054 42.4593C66.6054 42.0051 66.7545 41.5793 67.0525 41.182C67.3647 40.7846 67.6983 40.4582 68.0531 40.2027C68.4363 39.933 68.8265 39.7982 69.2239 39.7982C69.4368 39.7982 69.6355 39.8479 69.82 39.9472C70.0045 40.0324 70.1464 40.1743 70.2458 40.373C70.26 40.4014 70.2671 40.4369 70.2671 40.4794C70.2671 40.5646 70.2387 40.6214 70.1819 40.6497C70.1251 40.6781 70.0826 40.6497 70.0542 40.5646C69.969 40.3375 69.7349 40.224 69.3517 40.224C69.1246 40.224 68.8762 40.2666 68.6066 40.3517C68.3511 40.4369 68.1453 40.5362 67.9892 40.6497C67.5067 41.0187 67.2654 41.4942 67.2654 42.0761C67.2654 42.4877 67.4002 42.8567 67.6699 43.1831C67.8544 43.4102 68.046 43.623 68.2447 43.8217C68.4575 44.0062 68.635 44.1907 68.7769 44.3752C68.9188 44.5455 68.9685 44.7159 68.9259 44.8862C68.8549 45.1984 68.6491 45.4539 68.3085 45.6525C67.9821 45.837 67.677 45.9435 67.3931 45.9719C67.4783 45.9861 67.6344 45.9932 67.8615 45.9932C68.6704 45.9932 69.3588 45.7235 69.9265 45.1842C70.5083 44.6449 71.0406 44.0062 71.5231 43.2682C71.5515 43.2257 71.5799 43.2044 71.6082 43.2044C71.6366 43.2044 71.6508 43.2398 71.6508 43.3108C71.6508 43.396 71.6153 43.4953 71.5444 43.6088C71.0051 44.432 70.4445 45.0778 69.8626 45.5461C69.2949 46.0003 68.5711 46.2273 67.6912 46.2273ZM75.5283 46.0357C75.2729 46.0357 75.0813 45.9506 74.9535 45.7803C74.84 45.61 74.7832 45.39 74.7832 45.1203C74.7832 44.9358 74.8045 44.7513 74.8471 44.5668C74.8613 44.5384 74.8826 44.4746 74.911 44.3752C74.9393 44.2617 74.9819 44.134 75.0387 43.992C74.84 44.3043 74.5845 44.652 74.2723 45.0352C73.9743 45.4042 73.6407 45.6809 73.2717 45.8654C73.0589 45.9648 72.846 46.0144 72.6331 46.0144C72.3492 46.0144 72.1222 45.908 71.9519 45.6951C71.7815 45.468 71.6964 45.1558 71.6964 44.7584C71.6964 44.432 71.7674 44.0843 71.9093 43.7153C72.0512 43.3321 72.257 42.9418 72.5266 42.5444C72.697 42.289 72.9169 42.0406 73.1866 41.7993C73.4562 41.5581 73.7472 41.3594 74.0594 41.2032C74.3716 41.0471 74.6697 40.9691 74.9535 40.9691C75.2374 40.9691 75.4787 41.0471 75.6773 41.2032C75.876 41.3594 75.9825 41.5935 75.9967 41.9058C75.9967 41.9483 75.9754 41.9838 75.9328 42.0122C75.9044 42.0264 75.876 42.0051 75.8477 41.9483C75.6773 41.5652 75.4006 41.3736 75.0174 41.3736C74.7619 41.3736 74.4923 41.4942 74.2084 41.7355C73.9246 41.9625 73.6478 42.2535 73.3782 42.6083C73.1085 42.9631 72.8744 43.3179 72.6757 43.6727C72.5054 43.9849 72.3776 44.2688 72.2925 44.5243C72.2215 44.7797 72.186 44.9997 72.186 45.1842C72.186 45.5674 72.335 45.759 72.6331 45.759C72.7892 45.759 72.9595 45.7093 73.144 45.61C73.3143 45.5106 73.5201 45.3332 73.7614 45.0778C74.0168 44.8223 74.2652 44.5384 74.5065 44.2262C74.7619 43.914 74.989 43.6088 75.1877 43.3108C75.4006 43.0128 75.5567 42.7786 75.6561 42.6083C75.8689 42.2535 76.0889 41.9412 76.316 41.6716C76.5431 41.4019 76.7702 41.2671 76.9972 41.2671C77.1108 41.2671 77.1675 41.2955 77.1675 41.3523C77.1675 41.409 77.1392 41.4658 77.0824 41.5226C76.7985 41.8632 76.5289 42.2677 76.2734 42.736C76.0322 43.1902 75.8264 43.623 75.6561 44.0346C75.4999 44.4462 75.4077 44.7584 75.3793 44.9713C75.3367 45.4255 75.4716 45.6525 75.7838 45.6525C75.8264 45.6525 75.8689 45.6525 75.9115 45.6525C75.9541 45.6384 76.0038 45.6242 76.0605 45.61C76.3586 45.5106 76.6495 45.3261 76.9334 45.0565C77.2172 44.7868 77.4798 44.4959 77.721 44.1836C77.9623 43.8572 78.161 43.5734 78.3171 43.3321C78.3597 43.2753 78.3952 43.2469 78.4236 43.2469C78.4661 43.2469 78.4874 43.2824 78.4874 43.3534C78.4874 43.396 78.4661 43.4527 78.4236 43.5237C78.3242 43.6656 78.232 43.8075 78.1468 43.9495C78.0617 44.0772 77.9765 44.1978 77.8913 44.3114C77.863 44.3681 77.8275 44.4178 77.7849 44.4604C77.7423 44.503 77.6998 44.5526 77.6572 44.6094C77.4727 44.8365 77.2314 45.0849 76.9334 45.3545C76.6495 45.61 76.3657 45.7945 76.0818 45.908C75.8689 45.9932 75.6844 46.0357 75.5283 46.0357ZM79.5735 51.9327C79.2612 51.9327 78.9845 51.7836 78.7432 51.4856C78.502 51.2017 78.3529 50.7547 78.2962 50.1444C78.282 50.0309 78.2749 49.9102 78.2749 49.7825C78.2749 49.669 78.2749 49.5554 78.2749 49.4419C78.2749 48.9168 78.3175 48.3633 78.4026 47.7814C78.4878 47.2137 78.6155 46.646 78.7858 46.0783C78.9845 45.4113 79.2329 44.7229 79.5309 44.0133C79.8431 43.2895 80.127 42.6722 80.3824 42.1612C80.1554 42.1328 79.8999 42.1754 79.616 42.289C79.3322 42.4025 79.1122 42.5373 78.9561 42.6934C78.9135 42.736 78.878 42.7573 78.8497 42.7573C78.8071 42.7573 78.7858 42.7218 78.7858 42.6509C78.7858 42.4948 78.8497 42.367 78.9774 42.2677C79.1903 42.0548 79.4174 41.9058 79.6586 41.8206C79.8999 41.7213 80.2476 41.629 80.7018 41.5439C80.8011 41.3594 80.9288 41.1252 81.085 40.8413C81.2553 40.5575 81.3901 40.3233 81.4894 40.1388C81.9578 39.4008 82.4971 38.7338 83.1074 38.1377C83.7176 37.5416 84.3563 37.1726 85.0233 37.0307C85.0943 37.0165 85.1582 37.0094 85.2149 37.0094C85.2717 36.9952 85.3285 36.9881 85.3852 36.9881C85.6265 36.9881 85.8181 37.0378 85.96 37.1371C86.1019 37.2223 86.1871 37.3358 86.2155 37.4778C86.2297 37.5061 86.2368 37.5416 86.2368 37.5842C86.2368 37.6552 86.2155 37.6906 86.1729 37.6906C86.1161 37.6906 86.0807 37.641 86.0665 37.5416C86.0523 37.4707 85.9884 37.421 85.8749 37.3926C85.7613 37.35 85.6336 37.3287 85.4917 37.3287C85.1369 37.3287 84.7608 37.4636 84.3634 37.7332C83.9802 37.9887 83.6041 38.3364 83.2351 38.7764C82.8661 39.2021 82.5184 39.6705 82.192 40.1814C82.0642 40.3659 81.9365 40.5717 81.8088 40.7988C81.681 41.0117 81.5604 41.2103 81.4469 41.3948C81.8159 41.3523 82.1849 41.3168 82.5539 41.2884C82.9229 41.26 83.2635 41.2458 83.5757 41.2458C83.6892 41.2458 83.7957 41.2458 83.895 41.2458C83.9944 41.2458 84.0866 41.2529 84.1718 41.2671C84.3279 41.2955 84.406 41.3452 84.406 41.4161C84.406 41.5013 84.3421 41.5439 84.2144 41.5439C83.6467 41.5439 83.1287 41.5652 82.6603 41.6077C82.192 41.6503 81.7094 41.7284 81.2127 41.8419C81.1985 41.8987 81.1772 41.9554 81.1488 42.0122C81.1204 42.0548 81.0921 42.0974 81.0637 42.1399C81.4469 42.2251 81.7591 42.4451 82.0004 42.7999C82.2558 43.1547 82.4403 43.5947 82.5539 44.1198C82.6816 44.6449 82.7455 45.1984 82.7455 45.7803C82.7455 46.1209 82.7242 46.4757 82.6816 46.8447C82.5822 47.682 82.4048 48.4484 82.1494 49.1439C81.9081 49.8393 81.6314 50.3928 81.3191 50.8044C80.7372 51.5566 80.1554 51.9327 79.5735 51.9327ZM79.6586 51.4217C79.8999 51.4217 80.1625 51.294 80.4463 51.0385C80.7443 50.7973 81.0282 50.4283 81.2978 49.9315C81.4681 49.6051 81.6597 49.1722 81.8726 48.6329C82.0855 48.1078 82.2416 47.5046 82.341 46.8234C82.3694 46.6105 82.3907 46.3976 82.4048 46.1848C82.4332 45.9719 82.4474 45.7661 82.4474 45.5674C82.4474 44.7868 82.3197 44.0985 82.0642 43.5024C81.823 42.8921 81.454 42.516 80.9572 42.3741C80.5882 43.027 80.2476 43.7579 79.9354 44.5668C79.6231 45.3758 79.3606 46.199 79.1477 47.0363C78.949 47.8736 78.8213 48.6542 78.7645 49.378C78.7219 50.0593 78.7858 50.5702 78.9561 50.9108C79.1406 51.2514 79.3748 51.4217 79.6586 51.4217ZM86.3422 46.057C85.7603 46.057 85.3346 45.9293 85.0649 45.6738C84.7953 45.4042 84.6604 45.0494 84.6604 44.6094C84.6604 44.4959 84.6675 44.3823 84.6817 44.2688C84.7101 44.1411 84.7385 44.0133 84.7669 43.8856C84.8378 43.6301 84.9514 43.3321 85.1075 42.9915C85.2778 42.6509 85.4836 42.3173 85.7248 41.9909C85.9661 41.6645 86.2287 41.3948 86.5125 41.182C86.7964 40.9691 87.0944 40.8626 87.4066 40.8626C87.6621 40.8626 87.8537 40.9549 87.9814 41.1394C88.1234 41.3239 88.1943 41.5439 88.1943 41.7993C88.1943 42.069 88.1092 42.3457 87.9389 42.6296C87.7827 42.8992 87.5699 43.1192 87.3002 43.2895C86.988 43.5024 86.6332 43.6088 86.2358 43.6088C85.9803 43.6088 85.7461 43.5592 85.5333 43.4598C85.3204 43.8856 85.2139 44.3043 85.2139 44.7159C85.2139 45.0139 85.2991 45.2694 85.4694 45.4822C85.6397 45.6951 85.9235 45.8016 86.3209 45.8016C86.8035 45.8016 87.2292 45.688 87.5982 45.4609C87.9672 45.2197 88.3079 44.9074 88.6201 44.5243C88.9465 44.1411 89.2587 43.7295 89.5568 43.2895C89.5994 43.2469 89.6277 43.2257 89.6419 43.2257C89.6845 43.2257 89.7058 43.2611 89.7058 43.3321C89.7058 43.4031 89.6845 43.474 89.6419 43.545C89.3865 43.9424 89.0955 44.3327 88.7691 44.7159C88.4569 45.099 88.1021 45.4184 87.7047 45.6738C87.3073 45.9293 86.8531 46.057 86.3422 46.057ZM86.0229 43.3108C86.3919 43.3108 86.7396 43.1831 87.066 42.9276C87.2221 42.8141 87.357 42.6793 87.4705 42.5231C87.584 42.367 87.6621 42.2109 87.7047 42.0548C87.7473 41.8987 87.7685 41.7638 87.7685 41.6503C87.7685 41.3239 87.6479 41.1607 87.4066 41.1607C87.2505 41.1607 87.0731 41.2529 86.8744 41.4374C86.7041 41.5935 86.5267 41.7922 86.3422 42.0335C86.1719 42.2748 86.0229 42.5089 85.8952 42.736C85.7674 42.9489 85.6823 43.105 85.6397 43.2044C85.739 43.2753 85.8668 43.3108 86.0229 43.3108ZM90.2986 46.0357C90.0431 46.0357 89.8586 45.9506 89.7451 45.7803C89.6315 45.61 89.5747 45.3971 89.5747 45.1416C89.5747 44.9429 89.596 44.7513 89.6386 44.5668C89.6812 44.3681 89.816 44.0417 90.0431 43.5876C90.2702 43.1192 90.5185 42.6296 90.7882 42.1187C90.6463 42.1754 90.4901 42.2393 90.3198 42.3103C90.1637 42.367 90.0502 42.4309 89.9792 42.5018C89.9225 42.5302 89.887 42.5444 89.8728 42.5444C89.8302 42.5444 89.8089 42.516 89.8089 42.4593C89.8089 42.3315 89.887 42.2109 90.0431 42.0974C90.1992 41.9838 90.3482 41.9058 90.4901 41.8632C90.6463 41.8206 90.8237 41.7709 91.0224 41.7142C91.1785 41.4303 91.3417 41.1394 91.512 40.8413C91.6965 40.5291 91.8597 40.2595 92.0016 40.0324C92.101 39.8905 92.2429 39.7131 92.4274 39.5002C92.6119 39.2731 92.8177 39.0886 93.0448 38.9467C93.1725 38.8615 93.3428 38.8189 93.5557 38.8189C93.7118 38.8189 93.797 38.8473 93.8112 38.9041C93.5983 38.9609 93.3783 39.1028 93.1512 39.3299C92.9383 39.5569 92.7325 39.8195 92.5338 40.1175C92.3352 40.4156 92.1648 40.6994 92.0229 40.9691C91.881 41.2245 91.7746 41.4232 91.7036 41.5652C92.0016 41.5226 92.25 41.5013 92.4487 41.5013C92.5622 41.5013 92.6616 41.5084 92.7467 41.5226C92.8319 41.5226 92.9028 41.5297 92.9596 41.5439C93.0732 41.5581 93.1299 41.5935 93.1299 41.6503C93.1299 41.7071 93.059 41.7355 92.917 41.7355C92.8035 41.7355 92.6687 41.7355 92.5126 41.7355C92.3706 41.7355 92.2145 41.7497 92.0442 41.778C91.9165 41.7922 91.7817 41.8348 91.6397 41.9058C91.512 41.9767 91.4268 42.0548 91.3843 42.1399C91.072 42.7076 90.7953 43.254 90.554 43.7792C90.3127 44.3043 90.1779 44.7017 90.1495 44.9713C90.107 45.4255 90.2418 45.6525 90.554 45.6525C90.8662 45.6525 91.1785 45.5177 91.4907 45.2481C91.8171 44.9642 92.1223 44.6378 92.4061 44.2688C92.69 43.8998 92.917 43.5876 93.0873 43.3321C93.1441 43.2753 93.1796 43.2469 93.1938 43.2469C93.2364 43.2469 93.2577 43.2824 93.2577 43.3534C93.2577 43.4102 93.2364 43.474 93.1938 43.545C92.9525 43.914 92.6758 44.2901 92.3635 44.6733C92.0513 45.0565 91.7178 45.3829 91.363 45.6525C91.0224 45.908 90.6676 46.0357 90.2986 46.0357ZM92.5917 51.8901C92.166 51.8901 91.875 51.7623 91.7189 51.5069C91.6337 51.3508 91.5912 51.1876 91.5912 51.0172C91.5912 50.8469 91.6337 50.6624 91.7189 50.4637C91.7899 50.2651 91.8821 50.0664 91.9956 49.8677C92.1943 49.5412 92.4285 49.2219 92.6982 48.9097C92.9678 48.5975 93.2304 48.3136 93.4858 48.0581C93.7555 47.8027 93.9755 47.604 94.1458 47.4621C94.4296 47.2208 94.7773 46.937 95.1889 46.6105C95.6005 46.2841 96.0192 46.0074 96.4449 45.7803C96.4733 45.7661 96.5017 45.759 96.5301 45.759C96.5727 45.759 96.594 45.7803 96.594 45.8229C96.594 45.908 96.5585 45.9648 96.4875 45.9932C96.303 46.0925 96.0688 46.2415 95.785 46.4402C95.5012 46.6531 95.2173 46.866 94.9335 47.0789C94.6638 47.306 94.4367 47.5046 94.2522 47.675C94.1103 47.8027 93.9116 47.9943 93.6561 48.2497C93.4149 48.5052 93.1736 48.7891 92.9323 49.1013C92.6769 49.4277 92.464 49.7541 92.2937 50.0806C92.2369 50.1941 92.173 50.3431 92.1021 50.5276C92.0311 50.7263 91.9956 50.9108 91.9956 51.0811C91.9956 51.223 92.0382 51.3366 92.1234 51.4217C92.1943 51.5211 92.3292 51.5707 92.5279 51.5707C92.8259 51.5707 93.131 51.4643 93.4433 51.2514C93.7555 51.0385 94.0606 50.7689 94.3587 50.4425C94.6567 50.1302 94.9193 49.8109 95.1463 49.4845C95.3876 49.1722 95.5721 48.9026 95.6998 48.6755C96.0405 48.1078 96.3456 47.4905 96.6152 46.8234C96.8991 46.1706 97.1191 45.4964 97.2752 44.801C97.4313 44.1056 97.481 43.4456 97.4242 42.8212C97.41 42.5373 97.3462 42.2606 97.2326 41.9909C97.1758 42.4451 97.0055 42.9276 96.7217 43.4385C96.452 43.9495 96.1753 44.3752 95.8914 44.7159C95.6644 44.9855 95.4231 45.2339 95.1676 45.4609C94.9264 45.6738 94.6851 45.8229 94.4438 45.908C94.2309 45.9932 94.0464 46.0357 93.8903 46.0357C93.6349 46.0357 93.4504 45.9506 93.3368 45.7803C93.2233 45.61 93.1665 45.3971 93.1665 45.1416C93.1665 44.9429 93.1878 44.7513 93.2304 44.5668C93.2588 44.4817 93.3297 44.2688 93.4433 43.9282C93.571 43.5876 93.7342 43.2115 93.9329 42.7999C94.1458 42.3883 94.3729 42.0335 94.6141 41.7355C94.8554 41.4232 95.1038 41.2671 95.3592 41.2671C95.4728 41.2671 95.5295 41.2955 95.5295 41.3523C95.5295 41.409 95.5012 41.4658 95.4444 41.5226C95.1605 41.8632 94.8909 42.2677 94.6354 42.736C94.3941 43.1902 94.1884 43.623 94.0181 44.0346C93.8619 44.4462 93.7697 44.7584 93.7413 44.9713C93.6987 45.4255 93.8336 45.6525 94.1458 45.6525C94.4012 45.6525 94.6638 45.5532 94.9335 45.3545C95.2031 45.1416 95.4657 44.872 95.7211 44.5455C96.0334 44.1482 96.2888 43.7366 96.4875 43.3108C96.6862 42.885 96.8281 42.516 96.9133 42.2038C96.9417 42.1187 96.9701 42.0264 96.9984 41.9271C97.041 41.8277 97.0623 41.7284 97.0623 41.629V41.6077C97.0623 41.5084 97.1404 41.4587 97.2965 41.4587C97.3958 41.4587 97.4881 41.5226 97.5732 41.6503C97.8429 42.0903 97.9777 42.6651 97.9777 43.3747C97.9777 43.9849 97.8855 44.6378 97.701 45.3332C97.5307 46.0286 97.2894 46.717 96.9772 47.3982C96.6791 48.0936 96.3314 48.7394 95.934 49.3355C95.5366 49.9457 95.1109 50.4637 94.6567 50.8895C94.2167 51.3153 93.7768 51.6062 93.3368 51.7623C93.0672 51.8475 92.8188 51.8901 92.5917 51.8901ZM111.095 46.2273C110.797 46.2273 110.527 46.206 110.286 46.1635C110.059 46.1209 109.888 46.0783 109.775 46.0357C109.619 45.979 109.498 45.908 109.413 45.8229C109.342 45.7235 109.307 45.6384 109.307 45.5674C109.307 45.468 109.356 45.4184 109.456 45.4184C109.527 45.4184 109.612 45.4609 109.711 45.5461C109.91 45.7164 110.101 45.8158 110.286 45.8441C110.442 45.8441 110.648 45.8229 110.903 45.7803C111.159 45.7235 111.336 45.6454 111.435 45.5461C111.606 45.3758 111.691 45.2055 111.691 45.0352C111.691 44.9216 111.655 44.8152 111.584 44.7159C111.528 44.6023 111.442 44.4959 111.329 44.3965C111.144 44.2404 110.96 44.0843 110.775 43.9282C110.591 43.7579 110.435 43.5734 110.307 43.3747C110.108 43.0624 110.009 42.7573 110.009 42.4593C110.009 42.0051 110.158 41.5793 110.456 41.182C110.768 40.7846 111.102 40.4582 111.457 40.2027C111.84 39.933 112.23 39.7982 112.628 39.7982C112.84 39.7982 113.039 39.8479 113.224 39.9472C113.408 40.0324 113.55 40.1743 113.649 40.373C113.664 40.4014 113.671 40.4369 113.671 40.4794C113.671 40.5646 113.642 40.6214 113.586 40.6497C113.529 40.6781 113.486 40.6497 113.458 40.5646C113.373 40.3375 113.138 40.224 112.755 40.224C112.528 40.224 112.28 40.2666 112.01 40.3517C111.755 40.4369 111.549 40.5362 111.393 40.6497C110.91 41.0187 110.669 41.4942 110.669 42.0761C110.669 42.4877 110.804 42.8567 111.073 43.1831C111.258 43.4102 111.45 43.623 111.648 43.8217C111.861 44.0062 112.039 44.1907 112.18 44.3752C112.322 44.5455 112.372 44.7159 112.329 44.8862C112.259 45.1984 112.053 45.4539 111.712 45.6525C111.386 45.837 111.081 45.9435 110.797 45.9719C110.882 45.9861 111.038 45.9932 111.265 45.9932C112.074 45.9932 112.762 45.7235 113.33 45.1842C113.912 44.6449 114.444 44.0062 114.927 43.2682C114.955 43.2257 114.983 43.2044 115.012 43.2044C115.04 43.2044 115.054 43.2398 115.054 43.3108C115.054 43.396 115.019 43.4953 114.948 43.6088C114.409 44.432 113.848 45.0778 113.266 45.5461C112.698 46.0003 111.975 46.2273 111.095 46.2273ZM116.91 46.057C116.328 46.057 115.902 45.9293 115.632 45.6738C115.363 45.4042 115.228 45.0494 115.228 44.6094C115.228 44.4959 115.235 44.3823 115.249 44.2688C115.277 44.1411 115.306 44.0133 115.334 43.8856C115.405 43.6301 115.519 43.3321 115.675 42.9915C115.845 42.6509 116.051 42.3173 116.292 41.9909C116.533 41.6645 116.796 41.3948 117.08 41.182C117.364 40.9691 117.662 40.8626 117.974 40.8626C118.229 40.8626 118.421 40.9549 118.549 41.1394C118.691 41.3239 118.762 41.5439 118.762 41.7993C118.762 42.069 118.676 42.3457 118.506 42.6296C118.35 42.8992 118.137 43.1192 117.867 43.2895C117.555 43.5024 117.2 43.6088 116.803 43.6088C116.548 43.6088 116.313 43.5592 116.101 43.4598C115.888 43.8856 115.781 44.3043 115.781 44.7159C115.781 45.0139 115.866 45.2694 116.037 45.4822C116.207 45.6951 116.491 45.8016 116.888 45.8016C117.371 45.8016 117.797 45.688 118.166 45.4609C118.535 45.2197 118.875 44.9074 119.187 44.5243C119.514 44.1411 119.826 43.7295 120.124 43.2895C120.167 43.2469 120.195 43.2257 120.209 43.2257C120.252 43.2257 120.273 43.2611 120.273 43.3321C120.273 43.4031 120.252 43.474 120.209 43.545C119.954 43.9424 119.663 44.3327 119.336 44.7159C119.024 45.099 118.669 45.4184 118.272 45.6738C117.875 45.9293 117.42 46.057 116.91 46.057ZM116.59 43.3108C116.959 43.3108 117.307 43.1831 117.633 42.9276C117.789 42.8141 117.924 42.6793 118.038 42.5231C118.151 42.367 118.229 42.2109 118.272 42.0548C118.315 41.8987 118.336 41.7638 118.336 41.6503C118.336 41.3239 118.215 41.1607 117.974 41.1607C117.818 41.1607 117.64 41.2529 117.442 41.4374C117.271 41.5935 117.094 41.7922 116.91 42.0335C116.739 42.2748 116.59 42.5089 116.462 42.736C116.335 42.9489 116.25 43.105 116.207 43.2044C116.306 43.2753 116.434 43.3108 116.59 43.3108ZM122.441 46.0144C122.2 46.0144 122.008 45.9364 121.866 45.7803C121.739 45.61 121.675 45.4113 121.675 45.1842C121.675 44.9713 121.724 44.7655 121.824 44.5668C121.98 44.2404 122.179 43.9211 122.42 43.6088C122.675 43.2824 122.91 42.9986 123.122 42.7573C123.264 42.5728 123.335 42.4167 123.335 42.289C123.335 42.1187 123.229 41.9483 123.016 41.778C122.846 41.6645 122.69 41.5155 122.548 41.331C122.448 41.1891 122.377 41.0471 122.335 40.9052C122.108 41.3736 121.817 41.92 121.462 42.5444C121.121 43.1547 120.766 43.7011 120.397 44.1836C120.341 44.2688 120.284 44.3114 120.227 44.3114C120.185 44.3114 120.163 44.283 120.163 44.2262C120.163 44.1978 120.17 44.1694 120.185 44.1411C120.199 44.1127 120.241 44.0488 120.312 43.9495C120.681 43.4385 120.979 42.9631 121.206 42.5231C121.434 42.0832 121.632 41.6716 121.803 41.2884L122.271 40.2453C122.285 40.2169 122.299 40.1814 122.313 40.1388C122.342 40.0821 122.363 40.0466 122.377 40.0324C122.406 40.004 122.434 39.9898 122.462 39.9898C122.519 39.9898 122.562 40.0182 122.59 40.075C122.619 40.1317 122.619 40.2027 122.59 40.2878C122.562 40.444 122.583 40.6001 122.654 40.7562C122.725 40.9123 122.817 41.0542 122.931 41.182C123.044 41.2955 123.208 41.4019 123.42 41.5013C123.633 41.6006 123.825 41.7142 123.995 41.8419C124.166 41.9696 124.229 42.1328 124.187 42.3315C124.13 42.6012 123.981 42.8638 123.74 43.1192C123.499 43.3747 123.257 43.6443 123.016 43.9282C122.846 44.1127 122.69 44.2972 122.548 44.4817C122.42 44.6662 122.321 44.8578 122.25 45.0565C122.235 45.099 122.221 45.1416 122.207 45.1842C122.207 45.2268 122.207 45.2694 122.207 45.3119C122.207 45.5674 122.342 45.6951 122.612 45.6951C122.697 45.6951 122.803 45.6738 122.931 45.6313C123.286 45.5035 123.612 45.2906 123.91 44.9926C124.222 44.6946 124.485 44.3965 124.698 44.0985C124.925 43.8004 125.074 43.5947 125.145 43.4811C125.258 43.3108 125.329 43.2257 125.358 43.2257C125.4 43.2257 125.422 43.2611 125.422 43.3321C125.422 43.4031 125.4 43.474 125.358 43.545C125.045 44.0417 124.691 44.5101 124.293 44.95C123.896 45.39 123.47 45.7022 123.016 45.8867C122.803 45.9719 122.612 46.0144 122.441 46.0144ZM126.91 45.9932C126.754 45.9932 126.619 45.9577 126.505 45.8867C126.335 45.8016 126.215 45.6454 126.144 45.4184C126.073 45.1913 126.037 44.9429 126.037 44.6733C126.037 44.4036 126.058 44.1411 126.101 43.8856C126.158 43.6301 126.215 43.4173 126.271 43.2469C126.285 43.2044 126.3 43.1689 126.314 43.1405C126.328 43.0979 126.342 43.0553 126.356 43.0128C126.229 43.1973 126.115 43.3605 126.016 43.5024C125.916 43.6443 125.846 43.7437 125.803 43.8004C125.789 43.8288 125.76 43.843 125.718 43.843C125.675 43.843 125.64 43.8288 125.611 43.8004C125.597 43.7579 125.611 43.7153 125.654 43.6727C125.711 43.5876 125.803 43.4456 125.931 43.2469C126.073 43.0341 126.229 42.807 126.399 42.5657C126.569 42.3103 126.711 42.0974 126.825 41.9271C127.038 41.6148 127.329 41.4587 127.698 41.4587H127.761C127.804 41.4587 127.825 41.4729 127.825 41.5013C127.825 41.5155 127.79 41.5793 127.719 41.6929C127.577 41.8916 127.407 42.1754 127.208 42.5444C127.023 42.9134 126.86 43.3108 126.718 43.7366C126.591 44.1482 126.527 44.5314 126.527 44.8862C126.527 45.17 126.591 45.4113 126.718 45.61C126.775 45.6951 126.867 45.7377 126.995 45.7377C127.123 45.7377 127.265 45.688 127.421 45.5887C127.591 45.4893 127.74 45.3829 127.868 45.2694C128.18 45.0139 128.485 44.6804 128.783 44.2688C129.096 43.8572 129.351 43.4173 129.55 42.9489C129.763 42.4806 129.869 42.0335 129.869 41.6077C129.869 41.3807 129.834 41.1891 129.763 41.0329C129.692 40.8768 129.578 40.7846 129.422 40.7562C129.365 40.7562 129.337 40.7278 129.337 40.671C129.337 40.5859 129.394 40.5433 129.507 40.5433C129.791 40.5433 130.011 40.6639 130.167 40.9052C130.337 41.1323 130.423 41.4303 130.423 41.7993C130.423 41.998 130.394 42.2109 130.337 42.438C130.281 42.6651 130.195 42.8921 130.082 43.1192C129.897 43.474 129.656 43.8643 129.358 44.2901C129.06 44.7017 128.719 45.0707 128.336 45.3971C127.953 45.7093 127.542 45.9009 127.102 45.9719C127.059 45.9861 126.995 45.9932 126.91 45.9932ZM133.982 39.7556C133.784 39.7556 133.663 39.635 133.62 39.3937C133.606 39.2802 133.677 39.1666 133.833 39.0531C133.989 38.9396 134.117 38.8615 134.216 38.8189C134.287 38.7906 134.344 38.7693 134.387 38.7551C134.429 38.7409 134.465 38.7338 134.493 38.7338C134.592 38.7338 134.642 38.7835 134.642 38.8828C134.642 38.9963 134.6 39.1312 134.514 39.2873C134.443 39.4434 134.408 39.5215 134.408 39.5215C134.394 39.5782 134.344 39.635 134.259 39.6918C134.174 39.7343 134.082 39.7556 133.982 39.7556ZM131.853 46.0357C131.598 46.0357 131.413 45.9506 131.3 45.7803C131.186 45.61 131.13 45.3971 131.13 45.1416C131.13 44.9429 131.151 44.7513 131.193 44.5668C131.222 44.4817 131.293 44.2688 131.406 43.9282C131.534 43.5876 131.697 43.2115 131.896 42.7999C132.109 42.3883 132.336 42.0335 132.577 41.7355C132.818 41.4232 133.067 41.2671 133.322 41.2671C133.436 41.2671 133.493 41.2955 133.493 41.3523C133.493 41.409 133.464 41.4658 133.407 41.5226C133.124 41.8632 132.854 42.2677 132.598 42.736C132.357 43.1902 132.151 43.623 131.981 44.0346C131.825 44.4462 131.733 44.7584 131.704 44.9713C131.662 45.4255 131.797 45.6525 132.109 45.6525C132.151 45.6525 132.194 45.6525 132.237 45.6525C132.279 45.6384 132.329 45.6242 132.386 45.61C132.684 45.5106 132.975 45.3261 133.258 45.0565C133.542 44.7868 133.805 44.4888 134.046 44.1624C134.287 43.8359 134.486 43.5521 134.642 43.3108C134.699 43.254 134.734 43.2257 134.749 43.2257C134.791 43.2257 134.812 43.2611 134.812 43.3321C134.812 43.4031 134.791 43.474 134.749 43.545C134.436 44.0275 134.067 44.503 133.642 44.9713C133.23 45.4397 132.818 45.7519 132.407 45.908C132.194 45.9932 132.009 46.0357 131.853 46.0357ZM136.359 46.206C135.806 46.206 135.415 46.0712 135.188 45.8016C134.975 45.5319 134.869 45.2126 134.869 44.8436C134.869 44.5739 134.911 44.2901 134.997 43.992C135.096 43.694 135.209 43.4243 135.337 43.1831C135.55 42.7857 135.806 42.4025 136.104 42.0335C136.416 41.6645 136.742 41.3665 137.083 41.1394C137.423 40.8981 137.75 40.7775 138.062 40.7775C138.289 40.7775 138.495 40.8555 138.679 41.0117C138.864 41.1678 138.956 41.3665 138.956 41.6077C138.956 41.7071 138.935 41.8135 138.892 41.9271C138.85 42.0264 138.793 42.1258 138.722 42.2251C138.665 42.3103 138.609 42.3954 138.552 42.4806C138.523 42.5515 138.481 42.587 138.424 42.587C138.367 42.587 138.339 42.5373 138.339 42.438C138.339 42.367 138.36 42.3032 138.403 42.2464C138.445 42.1896 138.488 42.1116 138.53 42.0122C138.573 41.9129 138.594 41.8135 138.594 41.7142C138.594 41.5297 138.545 41.409 138.445 41.3523C138.36 41.2955 138.261 41.2671 138.147 41.2671C137.878 41.2671 137.587 41.3877 137.274 41.629C136.976 41.8561 136.7 42.1541 136.444 42.5231C136.189 42.8921 135.976 43.2824 135.806 43.694C135.649 44.0914 135.571 44.4604 135.571 44.801C135.571 45.0849 135.642 45.3332 135.784 45.5461C135.926 45.7448 136.175 45.8441 136.529 45.8441C136.771 45.8441 137.019 45.7945 137.274 45.6951C137.544 45.5816 137.792 45.4539 138.02 45.3119C138.389 45.0707 138.708 44.7797 138.978 44.4391C139.261 44.0843 139.538 43.7082 139.808 43.3108C139.85 43.254 139.886 43.2257 139.914 43.2257C139.943 43.2257 139.964 43.254 139.978 43.3108C139.992 43.3676 139.978 43.4314 139.936 43.5024C139.68 43.8998 139.382 44.3043 139.041 44.7159C138.701 45.1274 138.36 45.4397 138.02 45.6525C137.764 45.8229 137.494 45.9577 137.211 46.057C136.927 46.1564 136.643 46.206 136.359 46.206ZM141.849 46.057C141.267 46.057 140.841 45.9293 140.571 45.6738C140.302 45.4042 140.167 45.0494 140.167 44.6094C140.167 44.4959 140.174 44.3823 140.188 44.2688C140.217 44.1411 140.245 44.0133 140.273 43.8856C140.344 43.6301 140.458 43.3321 140.614 42.9915C140.784 42.6509 140.99 42.3173 141.231 41.9909C141.473 41.6645 141.735 41.3948 142.019 41.182C142.303 40.9691 142.601 40.8626 142.913 40.8626C143.169 40.8626 143.36 40.9549 143.488 41.1394C143.63 41.3239 143.701 41.5439 143.701 41.7993C143.701 42.069 143.616 42.3457 143.445 42.6296C143.289 42.8992 143.076 43.1192 142.807 43.2895C142.494 43.5024 142.14 43.6088 141.742 43.6088C141.487 43.6088 141.253 43.5592 141.04 43.4598C140.827 43.8856 140.72 44.3043 140.72 44.7159C140.72 45.0139 140.806 45.2694 140.976 45.4822C141.146 45.6951 141.43 45.8016 141.827 45.8016C142.31 45.8016 142.736 45.688 143.105 45.4609C143.474 45.2197 143.814 44.9074 144.127 44.5243C144.453 44.1411 144.765 43.7295 145.063 43.2895C145.106 43.2469 145.134 43.2257 145.148 43.2257C145.191 43.2257 145.212 43.2611 145.212 43.3321C145.212 43.4031 145.191 43.474 145.148 43.545C144.893 43.9424 144.602 44.3327 144.276 44.7159C143.963 45.099 143.609 45.4184 143.211 45.6738C142.814 45.9293 142.36 46.057 141.849 46.057ZM141.529 43.3108C141.898 43.3108 142.246 43.1831 142.572 42.9276C142.729 42.8141 142.863 42.6793 142.977 42.5231C143.09 42.367 143.169 42.2109 143.211 42.0548C143.254 41.8987 143.275 41.7638 143.275 41.6503C143.275 41.3239 143.154 41.1607 142.913 41.1607C142.757 41.1607 142.58 41.2529 142.381 41.4374C142.211 41.5935 142.033 41.7922 141.849 42.0335C141.678 42.2748 141.529 42.5089 141.402 42.736C141.274 42.9489 141.189 43.105 141.146 43.2044C141.245 43.2753 141.373 43.3108 141.529 43.3108Z" fill="white"/>
</svg>
