<svg width="18" height="18" viewBox="0 0 18 18" fill="none" xmlns="http://www.w3.org/2000/svg">
<path d="M5.86371 15.7574C12.232 15.7574 15.7145 10.4815 15.7145 5.90661C15.7145 5.75676 15.7114 5.60754 15.7047 5.45914C16.3806 4.97039 16.9681 4.36049 17.4317 3.66628C16.8114 3.94212 16.1437 4.12757 15.4435 4.21147C16.1582 3.78268 16.7071 3.10467 16.9659 2.29642C16.2969 2.69301 15.5561 2.98114 14.7674 3.13677C14.1357 2.46381 13.2361 2.04297 12.2401 2.04297C10.3283 2.04297 8.77772 3.59342 8.77772 5.50465C8.77772 5.77647 8.80816 6.04066 8.8675 6.29411C5.99003 6.14933 3.43835 4.77173 1.73093 2.67681C1.43372 3.18837 1.26221 3.78279 1.26221 4.41704C1.26221 5.61806 1.87345 6.67863 2.80285 7.29885C2.23485 7.28141 1.70131 7.12548 1.23486 6.86594C1.23434 6.88049 1.23434 6.89462 1.23434 6.9101C1.23434 8.58687 2.42773 9.98686 4.01213 10.3041C3.72111 10.3832 3.41492 10.4259 3.09913 10.4259C2.87643 10.4259 2.6593 10.404 2.44837 10.3634C2.88913 11.7391 4.16734 12.7401 5.6827 12.7681C4.49768 13.6969 3.00491 14.2502 1.38254 14.2502C1.10349 14.2502 0.827639 14.2342 0.556641 14.2022C2.08893 15.1843 3.90841 15.7575 5.86381 15.7575" fill="#171A4A"/>
</svg>
