<svg width="16" height="16" viewBox="0 0 16 16" fill="none" xmlns="http://www.w3.org/2000/svg">
<path d="M4.5 10.6667C5.06262 11.1554 5.72125 11.521 6.43356 11.74C7.14588 11.959 7.89613 12.0266 8.63613 11.9384C9.37612 11.8503 10.0895 11.6083 10.7304 11.228C11.3713 10.8478 11.9256 10.3376 12.3576 9.73044C12.7897 9.12324 13.09 8.43237 13.2391 7.70223C13.3883 6.97209 13.3831 6.21881 13.2239 5.4908C13.0646 4.76278 12.7548 4.07613 12.3144 3.47495C11.874 2.87378 11.3128 2.37137 10.6667 2M8 12V14.6667M5.33333 14.6667H10.6667M10.6667 6.66667C10.6667 8.13943 9.47276 9.33333 8 9.33333C6.52724 9.33333 5.33333 8.13943 5.33333 6.66667C5.33333 5.19391 6.52724 4 8 4C9.47276 4 10.6667 5.19391 10.6667 6.66667Z" stroke="#171B4A" stroke-linecap="round" stroke-linejoin="round"/>
</svg>
