<svg width="16" height="16" viewBox="0 0 16 16" fill="none" xmlns="http://www.w3.org/2000/svg">
<path d="M5.21251 14.0066C10.8732 14.0066 13.9688 9.31688 13.9688 5.25032C13.9688 5.11713 13.966 4.98448 13.96 4.85257C14.5609 4.41813 15.0831 3.876 15.4952 3.25892C14.9438 3.50412 14.3503 3.66896 13.7279 3.74354C14.3632 3.36239 14.851 2.75971 15.0811 2.04127C14.4865 2.3938 13.828 2.64991 13.1269 2.78824C12.5654 2.19006 11.7657 1.81598 10.8804 1.81598C9.18101 1.81598 7.80274 3.19416 7.80274 4.89303C7.80274 5.13465 7.8298 5.36948 7.88255 5.59478C5.32479 5.46608 3.05663 4.24155 1.53893 2.3794C1.27475 2.83411 1.12229 3.36248 1.12229 3.92627C1.12229 4.99384 1.66561 5.93657 2.49175 6.48788C1.98686 6.47237 1.51261 6.33377 1.09798 6.10306C1.09752 6.11599 1.09752 6.12856 1.09752 6.14232C1.09752 7.63278 2.15831 8.87721 3.56666 9.15919C3.30798 9.22955 3.03581 9.26744 2.75511 9.26744C2.55715 9.26744 2.36415 9.24799 2.17665 9.21194C2.56844 10.4347 3.70463 11.3245 5.05162 11.3495C3.99826 12.1751 2.67136 12.6668 1.22925 12.6668C0.981204 12.6668 0.736005 12.6526 0.495117 12.6242C1.85715 13.4972 3.47447 14.0067 5.2126 14.0067" fill="#3910CE"/>
</svg>
